<?xml version="1.0" encoding="iso-8859-1"?>
<!-- Generator: Adobe Illustrator 18.1.1, SVG Export Plug-In . SVG Version: 6.00 Build 0)  -->
<svg version="1.1" id="Capa_1" xmlns="http://www.w3.org/2000/svg" xmlns:xlink="http://www.w3.org/1999/xlink" x="0px" y="0px"
	 viewBox="0 0 32.146 32.146" style="enable-background:new 0 0 32.146 32.146;" xml:space="preserve">
<g>
	<rect x="14.076" y="20.037" style="fill:#eee;" width="2" height="4"/>
	<rect x="14.076" y="14.037" style="fill:#eee;" width="2" height="4"/>
	<rect x="8.076" y="12.037" style="fill:#eee;" width="6" height="2"/>
	<rect x="8.074" y="24.037" style="fill:#eee;" width="6" height="2"/>
	<rect x="10.076" y="18.037" style="fill:#eee;" width="4" height="2"/>
	<polygon style="fill:#eee;" points="22.076,14.037 22.076,12.037 20.076,12.037 18.076,12.037 18.076,14.037 20.076,14.037 
		20.076,24.037 18.074,24.037 18.074,26.037 20.076,26.037 22.076,26.037 24.074,26.037 24.074,24.037 22.076,24.037 	"/>
	<path style="fill:#eee;" d="M28.074,1.963V0.037h-2v1.926h-20V0.037h-2v1.926H0v30.147h32.146V1.963H28.074z M29.999,29.962
		H2.148V6.037h1.926v2h2v-2h20v2h2v-2h1.925C29.999,6.037,29.999,29.962,29.999,29.962z"/>
</g>
<g>
</g>
<g>
</g>
<g>
</g>
<g>
</g>
<g>
</g>
<g>
</g>
<g>
</g>
<g>
</g>
<g>
</g>
<g>
</g>
<g>
</g>
<g>
</g>
<g>
</g>
<g>
</g>
<g>
</g>
</svg>
